<?xml version="1.0" encoding="utf-8" standalone="no"?>
<!DOCTYPE svg PUBLIC "-//W3C//DTD SVG 1.1//EN"
  "http://www.w3.org/Graphics/SVG/1.1/DTD/svg11.dtd">
<!-- Created with matplotlib (https://matplotlib.org/) -->
<svg height="345.6pt" version="1.1" viewBox="0 0 460.8 345.6" width="460.8pt" xmlns="http://www.w3.org/2000/svg" xmlns:xlink="http://www.w3.org/1999/xlink">
 <metadata>
  <rdf:RDF xmlns:cc="http://creativecommons.org/ns#" xmlns:dc="http://purl.org/dc/elements/1.1/" xmlns:rdf="http://www.w3.org/1999/02/22-rdf-syntax-ns#">
   <cc:Work>
    <dc:type rdf:resource="http://purl.org/dc/dcmitype/StillImage"/>
    <dc:date>2021-01-22T14:35:38.973471</dc:date>
    <dc:format>image/svg+xml</dc:format>
    <dc:creator>
     <cc:Agent>
      <dc:title>Matplotlib v3.3.3, https://matplotlib.org/</dc:title>
     </cc:Agent>
    </dc:creator>
   </cc:Work>
  </rdf:RDF>
 </metadata>
 <defs>
  <style type="text/css">*{stroke-linecap:butt;stroke-linejoin:round;}</style>
 </defs>
 <g id="figure_1">
  <g id="patch_1">
   <path d="M 0 345.6 
L 460.8 345.6 
L 460.8 0 
L 0 0 
z
" style="fill:#ffffff;"/>
  </g>
  <g id="patch_2">
   <path d="M 68.4 334.8 
L 392.4 334.8 
L 392.4 10.8 
L 68.4 10.8 
z
" style="fill:#ffffff;"/>
  </g>
  <g id="pane3d_1">
   <g id="patch_3">
    <path d="M 92.864234 254.911983 
L 199.859616 165.226333 
L 198.372277 35.883593 
L 86.256616 117.700496 
" style="fill:#f2f2f2;opacity:0.5;stroke:#f2f2f2;stroke-linejoin:miter;"/>
   </g>
  </g>
  <g id="pane3d_2">
   <g id="patch_4">
    <path d="M 199.859616 165.226333 
L 371.549027 215.129667 
L 377.676017 81.331864 
L 198.372277 35.883593 
" style="fill:#e6e6e6;opacity:0.5;stroke:#e6e6e6;stroke-linejoin:miter;"/>
   </g>
  </g>
  <g id="pane3d_3">
   <g id="patch_5">
    <path d="M 92.864234 254.911983 
L 274.863396 314.352909 
L 371.549027 215.129667 
L 199.859616 165.226333 
" style="fill:#ececec;opacity:0.5;stroke:#ececec;stroke-linejoin:miter;"/>
   </g>
  </g>
  <g id="axis3d_1">
   <g id="line2d_1">
    <path d="M 92.864234 254.911983 
L 274.863396 314.352909 
" style="fill:none;stroke:#000000;stroke-linecap:square;stroke-width:0.8;"/>
   </g>
   <g id="text_1">
    <!-- $t$ -->
    <g transform="translate(159.03287 327.784898)scale(0.35 -0.35)">
     <defs>
      <path d="M 20.09375 40.09375 
L 29.296875 40.09375 
C 31.203125 40.09375 32.203125 40.09375 32.203125 41.890625 
C 32.203125 43 31.59375 43 29.59375 43 
L 20.796875 43 
L 24.5 57.25 
C 24.90625 58.625 24.90625 58.8125 24.90625 59.5 
C 24.90625 61.09375 23.59375 62 22.296875 62 
C 21.5 62 19.203125 61.6875 18.40625 58.53125 
L 14.5 43 
L 5.09375 43 
C 3.09375 43 2.203125 43 2.203125 41.09375 
C 2.203125 40.09375 2.90625 40.09375 4.796875 40.09375 
L 13.703125 40.09375 
L 7.09375 13.765625 
C 6.296875 10.265625 6 9.265625 6 7.96875 
C 6 3.28125 9.296875 -1 14.90625 -1 
C 25 -1 30.40625 13.5625 30.40625 14.265625 
C 30.40625 14.859375 30 15.15625 29.40625 15.15625 
C 29.203125 15.15625 28.796875 15.15625 28.59375 14.75 
C 28.5 14.65625 28.40625 14.5625 27.703125 12.96875 
C 25.59375 7.96875 21 1 15.203125 1 
C 12.203125 1 12 3.484375 12 5.6875 
C 12 5.78125 12 7.671875 12.296875 8.875 
z
" id="CMMI12-116"/>
     </defs>
     <use transform="scale(0.996264)" xlink:href="#CMMI12-116"/>
    </g>
   </g>
   <g id="Line3DCollection_1">
    <path d="M 103.887059 258.512038 
L 210.30124 168.261301 
L 209.255382 38.642142 
" style="fill:none;stroke:#b0b0b0;stroke-width:0.8;"/>
    <path d="M 262.696365 310.379157 
L 360.118421 211.807241 
L 365.714926 78.300076 
" style="fill:none;stroke:#b0b0b0;stroke-width:0.8;"/>
   </g>
   <g id="xtick_1">
    <g id="line2d_2">
     <path d="M 104.813707 257.726139 
L 102.029785 260.087207 
" style="fill:none;stroke:#000000;stroke-linecap:square;stroke-width:0.8;"/>
    </g>
    <g id="text_2">
     <!-- $\mathdefault{0}$ -->
     <g transform="translate(88.367173 298.427074)scale(0.35 -0.35)">
      <defs>
       <path d="M 42 31.84375 
C 42 37.96875 41.90625 48.421875 37.703125 56.453125 
C 34 63.484375 28.09375 66 22.90625 66 
C 18.09375 66 12 63.78125 8.203125 56.5625 
C 4.203125 49.015625 3.796875 39.671875 3.796875 31.84375 
C 3.796875 26.109375 3.90625 17.375 7 9.734375 
C 11.296875 -0.609375 19 -2 22.90625 -2 
C 27.5 -2 34.5 -0.109375 38.59375 9.4375 
C 41.59375 16.375 42 24.5 42 31.84375 
z
M 22.90625 -0.40625 
C 16.5 -0.40625 12.703125 5.125 11.296875 12.75 
C 10.203125 18.6875 10.203125 27.328125 10.203125 32.953125 
C 10.203125 40.6875 10.203125 47.109375 11.5 53.234375 
C 13.40625 61.78125 19 64.390625 22.90625 64.390625 
C 27 64.390625 32.296875 61.671875 34.203125 53.4375 
C 35.5 47.71875 35.59375 40.984375 35.59375 32.953125 
C 35.59375 26.421875 35.59375 18.375 34.40625 12.453125 
C 32.296875 1.5 26.40625 -0.40625 22.90625 -0.40625 
z
" id="CMR17-48"/>
      </defs>
      <use transform="scale(0.996264)" xlink:href="#CMR17-48"/>
     </g>
    </g>
   </g>
   <g id="xtick_2">
    <g id="line2d_3">
     <path d="M 263.547956 309.517514 
L 260.989355 312.106314 
" style="fill:none;stroke:#000000;stroke-linecap:square;stroke-width:0.8;"/>
    </g>
    <g id="text_3">
     <!-- $\mathdefault{20}$ -->
     <g transform="translate(239.332572 351.201753)scale(0.35 -0.35)">
      <defs>
       <path d="M 41.703125 15.46875 
L 39.90625 15.46875 
C 38.90625 8.390625 38.09375 7.1875 37.703125 6.59375 
C 37.203125 5.796875 30 5.796875 28.59375 5.796875 
L 9.40625 5.796875 
C 13 9.6875 20 16.765625 28.5 24.9375 
C 34.59375 30.71875 41.703125 37.5 41.703125 47.390625 
C 41.703125 59.1875 32.296875 66 21.796875 66 
C 10.796875 66 4.09375 56.296875 4.09375 47.296875 
C 4.09375 43.390625 7 42.890625 8.203125 42.890625 
C 9.203125 42.890625 12.203125 43.484375 12.203125 46.984375 
C 12.203125 50.09375 9.59375 51 8.203125 51 
C 7.59375 51 7 50.890625 6.59375 50.6875 
C 8.5 59.1875 14.296875 63.390625 20.40625 63.390625 
C 29.09375 63.390625 34.796875 56.5 34.796875 47.390625 
C 34.796875 38.703125 29.703125 31.21875 24 24.734375 
L 4.09375 2.296875 
L 4.09375 0 
L 39.296875 0 
z
" id="CMR17-50"/>
      </defs>
      <use transform="scale(0.996264)" xlink:href="#CMR17-50"/>
      <use transform="translate(45.690477 0)scale(0.996264)" xlink:href="#CMR17-48"/>
     </g>
    </g>
   </g>
  </g>
  <g id="axis3d_2">
   <g id="line2d_4">
    <path d="M 371.549027 215.129667 
L 274.863396 314.352909 
" style="fill:none;stroke:#000000;stroke-linecap:square;stroke-width:0.8;"/>
   </g>
   <g id="text_4">
    <!-- $\mathrm{Re}(x(t))$ -->
    <g transform="translate(317.045922 339.229531)rotate(-45.742112)scale(0.35 -0.35)">
     <defs>
      <path d="M 39.203125 33.6875 
C 48.703125 35.59375 56.703125 42.015625 56.703125 50.046875 
C 56.703125 59.46875 46.09375 68 32.09375 68 
L 5.203125 68 
L 5.203125 65.390625 
C 12.09375 65.390625 13.203125 65.390625 13.203125 60.875 
L 13.203125 6.6875 
C 13.203125 2.1875 12.09375 2.1875 5.203125 2.1875 
L 5.203125 -0.40625 
C 8.09375 -0.203125 13.296875 -0.203125 16.40625 -0.203125 
C 19.5 -0.203125 24.703125 -0.203125 27.59375 -0.40625 
L 27.59375 2.1875 
C 20.703125 2.1875 19.59375 2.1875 19.59375 6.6875 
L 19.59375 33 
L 31.296875 33 
C 37 33 40.203125 30.6875 41.59375 29.390625 
C 45.59375 25.5 45.59375 22.796875 45.59375 16 
C 45.59375 9.296875 45.59375 5.890625 48.59375 2.5 
C 52.40625 -1.609375 57.5 -2 59.703125 -2 
C 67.09375 -2 68.203125 6.296875 68.203125 8 
C 68.203125 8.59375 68.203125 9.296875 67.296875 9.296875 
C 66.5 9.296875 66.40625 8.6875 66.40625 8.296875 
C 65.90625 1.796875 63 -0.40625 59.90625 -0.40625 
C 54.40625 -0.40625 53.796875 5.890625 53.203125 12 
C 52.90625 14.09375 52.703125 15.59375 52.5 17.796875 
C 51.90625 22.796875 51.09375 30.09375 39.203125 33.6875 
z
M 31 34.59375 
L 19.59375 34.59375 
L 19.59375 61.484375 
C 19.59375 64.890625 19.796875 65.390625 23.796875 65.390625 
L 31.09375 65.390625 
C 39.40625 65.390625 49.09375 62.484375 49.09375 50.046875 
C 49.09375 37.09375 38.5 34.59375 31 34.59375 
z
" id="CMR17-82"/>
      <path d="M 38.09375 23.484375 
C 38.5 23.890625 38.5 24.09375 38.5 25.09375 
C 38.5 35.171875 33.09375 44 21.703125 44 
C 11.09375 44 2.703125 33.984375 2.703125 21.78125 
C 2.703125 8.65625 12.203125 -1 22.796875 -1 
C 34 -1 38.40625 9.671875 38.40625 11.796875 
C 38.40625 12.5 37.796875 12.5 37.59375 12.5 
C 36.90625 12.5 36.796875 12.296875 36.40625 11.078125 
C 34.203125 4.21875 28.703125 0.796875 23.5 0.796875 
C 19.203125 0.796875 14.90625 3.21875 12.203125 7.65625 
C 9.09375 12.796875 9.09375 18.75 9.09375 23.484375 
z
M 9.203125 25 
C 9.90625 39.234375 17.59375 42.390625 21.59375 42.390625 
C 28.40625 42.390625 33 36.0625 33.09375 25 
z
" id="CMR17-101"/>
      <path d="M 30.59375 -24.40625 
C 30.59375 -24.3125 30.59375 -24.109375 30.296875 -23.8125 
C 25.703125 -19.109375 13.40625 -6.296875 13.40625 24.9375 
C 13.40625 56.171875 25.5 68.875 30.40625 73.890625 
C 30.40625 73.984375 30.59375 74.1875 30.59375 74.484375 
C 30.59375 74.796875 30.296875 75 29.90625 75 
C 28.796875 75 20.296875 67.578125 15.40625 56.5625 
C 10.40625 45.453125 9 34.65625 9 25.046875 
C 9 17.828125 9.703125 5.625 15.703125 -7.296875 
C 20.5 -17.703125 28.703125 -25 29.90625 -25 
C 30.40625 -25 30.59375 -24.8125 30.59375 -24.40625 
z
" id="CMR17-40"/>
      <path d="M 47.40625 41 
C 44.203125 40.390625 43 37.984375 43 36.09375 
C 43 33.6875 44.90625 32.890625 46.296875 32.890625 
C 49.296875 32.890625 51.40625 35.484375 51.40625 38.1875 
C 51.40625 42.09375 46.59375 44 42.40625 44 
C 36.296875 44 32.90625 38.296875 32 36.390625 
C 29.703125 43.59375 23.5 44 21.703125 44 
C 11.5 44 6.09375 31.140625 6.09375 28.890625 
C 6.09375 28.484375 6.5 27.96875 7.203125 27.96875 
C 8 27.96875 8.203125 28.578125 8.40625 28.984375 
C 11.796875 40.1875 18.5 41.984375 21.40625 41.984375 
C 25.90625 41.984375 26.796875 38.09375 26.796875 35.6875 
C 26.796875 33.484375 26.203125 31.140625 25 26.21875 
L 21.59375 12.15625 
C 20.09375 6.09375 17.203125 1 11.90625 1 
C 11.40625 1 8.90625 1 6.796875 1.96875 
C 10.40625 2.59375 11.203125 5.59375 11.203125 6.796875 
C 11.203125 8.796875 9.703125 10 7.796875 10 
C 5.40625 10 2.796875 7.890625 2.796875 4.6875 
C 2.796875 0.890625 7.5 -1 11.796875 -1 
C 16.59375 -1 20 2.390625 22.09375 6.484375 
C 23.703125 1 28.703125 -1 32.40625 -1 
C 42.59375 -1 48 11.734375 48 14 
C 48 14.515625 47.59375 14.921875 47 14.921875 
C 46.09375 14.921875 46 14.40625 45.703125 13.59375 
C 43 4.6875 37.203125 1 32.703125 1 
C 29.203125 1 27.296875 3.1875 27.296875 7.296875 
C 27.296875 9.484375 27.703125 11.125 29.296875 17.90625 
L 32.796875 31.859375 
C 34.296875 37.890625 37.703125 41.984375 42.296875 41.984375 
C 42.5 41.984375 45.296875 41.984375 47.40625 41 
z
" id="CMMI12-120"/>
      <path d="M 26.296875 24.9375 
C 26.296875 32.140625 25.59375 44.359375 19.59375 57.265625 
C 14.796875 67.6875 6.59375 75 5.40625 75 
C 5.09375 75 4.703125 74.890625 4.703125 74.390625 
C 4.703125 74.1875 4.796875 74.09375 4.90625 73.890625 
C 9.703125 68.875 21.90625 56.171875 21.90625 25.046875 
C 21.90625 -6.1875 9.796875 -18.90625 4.90625 -23.90625 
C 4.796875 -24.109375 4.703125 -24.203125 4.703125 -24.40625 
C 4.703125 -24.90625 5.09375 -25 5.40625 -25 
C 6.5 -25 15 -17.609375 19.90625 -6.59375 
C 24.90625 4.515625 26.296875 15.328125 26.296875 24.9375 
z
" id="CMR17-41"/>
     </defs>
     <use transform="scale(0.996264)" xlink:href="#CMR17-82"/>
     <use transform="translate(67.791102 0)scale(0.996264)" xlink:href="#CMR17-101"/>
     <use transform="translate(108.276762 0)scale(0.996264)" xlink:href="#CMR17-40"/>
     <use transform="translate(143.55753 0)scale(0.996264)" xlink:href="#CMMI12-120"/>
     <use transform="translate(198.99159 0)scale(0.996264)" xlink:href="#CMR17-40"/>
     <use transform="translate(234.272358 0)scale(0.996264)" xlink:href="#CMMI12-116"/>
     <use transform="translate(269.498688 0)scale(0.996264)" xlink:href="#CMR17-41"/>
     <use transform="translate(304.779456 0)scale(0.996264)" xlink:href="#CMR17-41"/>
    </g>
   </g>
  </g>
  <g id="axis3d_3">
   <g id="line2d_5">
    <path d="M 371.549027 215.129667 
L 377.676017 81.331864 
" style="fill:none;stroke:#000000;stroke-linecap:square;stroke-width:0.8;"/>
   </g>
   <g id="text_5">
    <!-- $\mathrm{Im}(x(t))$ -->
    <g transform="translate(420.943652 204.351546)rotate(-87.378092)scale(0.35 -0.35)">
     <defs>
      <path d="M 19.703125 60.90625 
C 19.703125 65.390625 20.90625 65.390625 28.09375 65.390625 
L 28.09375 68 
C 24.90625 67.796875 19.796875 67.796875 16.40625 67.796875 
C 13 67.796875 7.90625 67.796875 4.703125 68 
L 4.703125 65.390625 
C 11.90625 65.390625 13.09375 65.390625 13.09375 60.90625 
L 13.09375 7.078125 
C 13.09375 2.59375 11.90625 2.59375 4.703125 2.59375 
L 4.703125 0 
C 7.90625 0.1875 13 0.1875 16.40625 0.1875 
C 19.796875 0.1875 24.90625 0.1875 28.09375 0 
L 28.09375 2.59375 
C 20.90625 2.59375 19.703125 2.59375 19.703125 7.078125 
z
" id="CMR17-73"/>
      <path d="M 67.59375 30.53125 
C 67.59375 35.5625 66.703125 44 54.796875 44 
C 48 44 43.296875 39.375 41.5 33.953125 
L 41.40625 33.953125 
C 40.203125 42.1875 34.296875 44 28.703125 44 
C 20.796875 44 16.703125 37.875 15.203125 33.84375 
L 15.09375 33.84375 
L 15.09375 44 
L 3.296875 42.890625 
L 3.296875 40.28125 
C 9.203125 40.28125 10.09375 39.6875 10.09375 34.859375 
L 10.09375 6.921875 
C 10.09375 3.09375 9.703125 2.59375 3.296875 2.59375 
L 3.296875 0 
C 5.703125 0.1875 10.09375 0.1875 12.703125 0.1875 
C 15.296875 0.1875 19.796875 0.1875 22.203125 0 
L 22.203125 2.59375 
C 15.796875 2.59375 15.40625 3 15.40625 6.921875 
L 15.40625 26.21875 
C 15.40625 35.453125 21 42.390625 28 42.390625 
C 35.40625 42.390625 36.203125 35.765625 36.203125 30.9375 
L 36.203125 6.921875 
C 36.203125 3.09375 35.796875 2.59375 29.40625 2.59375 
L 29.40625 0 
C 31.796875 0.1875 36.203125 0.1875 38.796875 0.1875 
C 41.40625 0.1875 45.90625 0.1875 48.296875 0 
L 48.296875 2.59375 
C 41.90625 2.59375 41.5 3 41.5 6.921875 
L 41.5 26.21875 
C 41.5 35.453125 47.09375 42.390625 54.09375 42.390625 
C 61.5 42.390625 62.296875 35.765625 62.296875 30.9375 
L 62.296875 6.921875 
C 62.296875 3.09375 61.90625 2.59375 55.5 2.59375 
L 55.5 0 
C 57.90625 0.1875 62.296875 0.1875 64.90625 0.1875 
C 67.5 0.1875 72 0.1875 74.40625 0 
L 74.40625 2.59375 
C 68 2.59375 67.59375 3 67.59375 6.921875 
z
" id="CMR17-109"/>
     </defs>
     <use transform="scale(0.996264)" xlink:href="#CMR17-73"/>
     <use transform="translate(32.638409 0)scale(0.996264)" xlink:href="#CMR17-109"/>
     <use transform="translate(109.557999 0)scale(0.996264)" xlink:href="#CMR17-40"/>
     <use transform="translate(144.838767 0)scale(0.996264)" xlink:href="#CMMI12-120"/>
     <use transform="translate(200.272826 0)scale(0.996264)" xlink:href="#CMR17-40"/>
     <use transform="translate(235.553594 0)scale(0.996264)" xlink:href="#CMMI12-116"/>
     <use transform="translate(270.779924 0)scale(0.996264)" xlink:href="#CMR17-41"/>
     <use transform="translate(306.060692 0)scale(0.996264)" xlink:href="#CMR17-41"/>
    </g>
   </g>
  </g>
  <g id="axes_1">
   <g id="line2d_6">
    <path clip-path="url(#pce7c886ca4)" d="M 203.405662 109.879229 
L 203.803824 105.150638 
L 203.921717 100.658282 
L 203.760665 96.430647 
L 203.458434 93.450218 
L 203.002545 90.645352 
L 202.395193 88.026825 
L 201.639056 85.604971 
L 200.737299 83.389649 
L 199.693583 81.390194 
L 198.512065 79.615382 
L 197.197403 78.073381 
L 195.754752 76.771711 
L 194.189769 75.717197 
L 192.508607 74.915925 
L 190.717908 74.373197 
L 188.824797 74.093489 
L 186.836871 74.080403 
L 184.762183 74.33663 
L 182.60923 74.86391 
L 180.38693 75.66299 
L 178.104596 76.733596 
L 175.771913 78.0744 
L 173.398909 79.682993 
L 170.995913 81.555865 
L 168.573525 83.688388 
L 166.142572 86.074809 
L 163.714062 88.708243 
L 161.299138 91.580679 
L 158.119782 95.766441 
L 155.01121 100.336089 
L 151.999949 105.261622 
L 149.112141 110.51186 
L 146.373289 116.05265 
L 143.808006 121.847128 
L 141.439763 127.856009 
L 139.290645 134.037929 
L 137.381118 140.349818 
L 135.729816 146.747299 
L 134.353338 153.185114 
L 133.266081 159.617566 
L 132.480093 165.998967 
L 132.094168 170.724278 
L 131.886255 175.376647 
L 131.858638 179.937692 
L 132.012774 184.389521 
L 132.349294 188.714821 
L 132.868005 192.896949 
L 133.567902 196.92001 
L 134.447184 200.76894 
L 135.503275 204.429567 
L 136.732848 207.888675 
L 138.13186 211.134055 
L 139.695583 214.154551 
L 141.418642 216.940094 
L 143.295058 219.481727 
L 145.318288 221.771632 
L 147.481271 223.803131 
L 149.776477 225.5707 
L 152.195952 227.069956 
L 154.731366 228.297656 
L 157.374061 229.251673 
L 160.115099 229.930979 
L 162.945307 230.335615 
L 165.855325 230.466663 
L 168.835648 230.326206 
L 171.876669 229.917294 
L 174.968718 229.243901 
L 178.102102 228.310878 
L 181.267143 227.123917 
L 184.454206 225.689496 
L 187.653736 224.014838 
L 190.856287 222.107861 
L 194.052544 219.977136 
L 197.233355 217.631837 
L 200.389746 215.081695 
L 203.512947 212.336961 
L 207.610845 208.393208 
L 211.614965 204.14921 
L 215.506516 199.63275 
L 219.267572 194.872655 
L 222.881116 189.89864 
L 226.33108 184.741174 
L 229.602384 179.431349 
L 232.680961 174.000752 
L 235.553788 168.481355 
L 238.20891 162.905398 
L 240.63547 157.30529 
L 242.823726 151.713499 
L 244.765083 146.162452 
L 246.452114 140.684438 
L 247.87859 135.311501 
L 249.039508 130.075335 
L 249.931124 125.007177 
L 250.550979 120.137692 
L 250.897937 115.496851 
L 250.972219 111.113803 
L 250.775435 107.016739 
L 250.310619 103.232751 
L 249.788755 100.615806 
L 249.12106 98.199908 
L 248.310449 95.994951 
L 247.360323 94.010298 
L 246.274567 92.254738 
L 245.057553 90.736442 
L 243.714148 89.462921 
L 242.249704 88.440977 
L 240.670065 87.676659 
L 238.981555 87.175217 
L 237.190977 86.941058 
L 235.3056 86.977701 
L 233.333146 87.287738 
L 231.281777 87.872787 
L 229.160077 88.733463 
L 226.977024 89.869335 
L 224.741972 91.278903 
L 222.464617 92.959565 
L 220.154966 94.9076 
L 217.8233 97.11815 
L 215.480135 99.585214 
L 213.136178 102.30164 
L 210.028444 106.296936 
L 206.964576 110.697879 
L 203.970621 115.478196 
L 201.072479 120.608266 
L 198.295653 126.055299 
L 195.665009 131.783565 
L 193.204524 137.754675 
L 190.937038 143.927892 
L 188.88402 150.26049 
L 187.065336 156.708148 
L 185.499044 163.225367 
L 184.201198 169.765908 
L 183.185688 176.283253 
L 182.464095 182.73106 
L 182.045585 189.063622 
L 181.93471 193.710518 
L 182.000006 198.249173 
L 182.242543 202.661877 
L 182.662587 206.931589 
L 183.259608 211.042022 
L 184.032289 214.97772 
L 184.978548 218.724128 
L 186.095559 222.26766 
L 187.379782 225.595748 
L 188.826993 228.696891 
L 190.432318 231.560694 
L 192.190277 234.177895 
L 194.094819 236.540387 
L 196.139367 238.641228 
L 198.316866 240.474652 
L 200.619822 242.036058 
L 203.040357 243.322009 
L 205.570247 244.330207 
L 208.200973 245.059479 
L 210.923769 245.509745 
L 213.72966 245.681988 
L 216.609509 245.578217 
L 219.554062 245.201429 
L 222.55398 244.555565 
L 225.599885 243.645467 
L 228.682392 242.476834 
L 231.792143 241.056169 
L 234.919839 239.390738 
L 238.056269 237.488518 
L 241.19234 235.358151 
L 244.319096 233.008896 
L 247.427744 230.450582 
L 251.529592 226.732265 
L 255.56413 222.686614 
L 259.512227 218.340835 
L 263.35552 213.723313 
L 267.076463 208.86345 
L 270.658378 203.791519 
L 274.085488 198.53852 
L 277.342953 193.136053 
L 280.416899 187.616193 
L 283.294448 182.011374 
L 285.96374 176.354276 
L 288.413959 170.677724 
L 290.635358 165.014581 
L 292.619281 159.397647 
L 294.358193 153.859562 
L 295.845703 148.432698 
L 297.076598 143.14906 
L 298.046866 138.040168 
L 298.753735 133.136952 
L 299.195706 128.469624 
L 299.372583 124.06755 
L 299.285512 119.959114 
L 298.937017 116.171571 
L 298.506398 113.557174 
L 297.933098 111.148345 
L 297.219772 108.955015 
L 296.36954 106.98657 
L 295.385998 105.251813 
L 294.273216 103.758918 
L 293.035748 102.515382 
L 291.678625 101.527981 
L 290.207359 100.802724 
L 288.627936 100.344804 
L 286.946814 100.158558 
L 285.170909 100.247415 
L 283.307589 100.613859 
L 281.36466 101.259387 
L 279.350344 102.184468 
L 277.273263 103.388511 
L 275.142412 104.869833 
L 272.967133 106.625631 
L 270.757084 108.651963 
L 268.522204 110.943733 
L 265.521366 114.401336 
L 262.519181 118.30149 
L 259.540765 122.622465 
L 256.611474 127.338944 
L 253.756683 132.422138 
L 251.001553 137.839954 
L 248.370792 143.557208 
L 245.888411 149.535886 
L 243.577484 155.735451 
L 241.459903 162.113193 
L 239.556151 168.624614 
L 237.885085 175.223842 
L 236.463735 181.864081 
L 235.307125 188.498063 
L 234.428123 195.078521 
L 233.83731 201.558662 
L 233.542889 207.892623 
L 233.520136 212.520344 
L 233.668909 217.022666 
L 233.989936 221.38214 
L 234.483168 225.582073 
L 235.147784 229.606607 
L 235.982208 233.440795 
L 236.984129 237.070669 
L 238.150529 240.483292 
L 239.477705 243.66681 
L 240.96131 246.610493 
L 242.596383 249.304764 
L 244.37739 251.741222 
L 246.298265 253.912655 
L 248.352453 255.813047 
L 250.532952 257.437578 
L 252.83236 258.78261 
L 255.24292 259.845676 
L 257.756564 260.625453 
L 260.364957 261.12174 
L 263.059541 261.335422 
L 265.831582 261.268435 
L 268.672202 260.923724 
L 271.572428 260.305202 
L 274.523224 259.417705 
L 277.515528 258.266941 
L 280.540285 256.859447 
L 283.588481 255.202535 
L 286.651169 253.304247 
L 289.719499 251.173303 
L 292.78474 248.819055 
L 295.838305 246.251435 
L 299.877029 242.514201 
L 303.860589 238.442467 
L 307.770178 234.063763 
L 311.587695 229.406816 
L 315.295803 224.501387 
L 318.877966 219.378121 
L 322.318496 214.068404 
L 325.602579 208.604224 
L 328.716312 203.018053 
L 331.646728 197.342724 
L 334.381819 191.611323 
L 336.910561 185.857077 
L 339.222941 180.11326 
L 341.309977 174.413081 
L 343.163746 168.789594 
L 344.77741 163.275588 
L 346.145244 157.903487 
L 347.262667 152.70524 
L 348.126271 147.712209 
L 348.733861 142.955047 
L 349.084485 138.46357 
L 349.178469 134.266619 
L 349.017458 130.39192 
L 348.604449 126.865921 
L 348.131902 124.465361 
L 347.522411 122.285012 
L 346.778803 120.334284 
L 345.904363 118.621992 
L 344.902841 117.156308 
L 343.778457 115.944715 
L 342.535899 114.99396 
L 341.180324 114.310007 
L 339.717357 113.89799 
L 338.153086 113.762168 
L 336.494051 113.905877 
L 334.747242 114.331488 
L 334.747242 114.331488 
" style="fill:none;stroke:#1f77b4;stroke-linecap:square;stroke-width:1.5;"/>
   </g>
  </g>
 </g>
 <defs>
  <clipPath id="pce7c886ca4">
   <rect height="324" width="324" x="68.4" y="10.8"/>
  </clipPath>
 </defs>
</svg>
